<?xml version="1.0" encoding="UTF-8" standalone="no"?>
<svg
   xmlns:dc="http://purl.org/dc/elements/1.1/"
   xmlns:cc="http://creativecommons.org/ns#"
   xmlns:rdf="http://www.w3.org/1999/02/22-rdf-syntax-ns#"
   xmlns:svg="http://www.w3.org/2000/svg"
   xmlns="http://www.w3.org/2000/svg"
   xmlns:sodipodi="http://sodipodi.sourceforge.net/DTD/sodipodi-0.dtd"
   xmlns:inkscape="http://www.inkscape.org/namespaces/inkscape"
   width="32px"
   height="32px"
   viewBox="0 0 32 32"
   version="1.1"
   id="svg4"
   sodipodi:docname="cc0.svg"
   inkscape:version="1.0.2 (e86c870879, 2021-01-15)">
  <metadata
     id="metadata10">
    <rdf:RDF>
      <cc:Work
         rdf:about="">
        <dc:format>image/svg+xml</dc:format>
        <dc:type
           rdf:resource="http://purl.org/dc/dcmitype/StillImage" />
        <dc:title></dc:title>
      </cc:Work>
    </rdf:RDF>
  </metadata>
  <defs
     id="defs8" />
  <sodipodi:namedview
     pagecolor="#ffffff"
     bordercolor="#666666"
     borderopacity="1"
     objecttolerance="10"
     gridtolerance="10"
     guidetolerance="10"
     inkscape:pageopacity="0"
     inkscape:pageshadow="2"
     inkscape:window-width="1366"
     inkscape:window-height="704"
     id="namedview6"
     showgrid="false"
     inkscape:zoom="10.650796"
     inkscape:cx="17.292484"
     inkscape:cy="17.402482"
     inkscape:window-x="0"
     inkscape:window-y="0"
     inkscape:window-maximized="1"
     inkscape:current-layer="svg4" />
  <path
     d="M15.975 0.5c8.862 0 15.525 6.881 15.525 15.5 0 9.194-7.406 15.5-15.525 15.5-8.375 0-15.475-6.844-15.475-15.5 0-8.306 6.544-15.5 15.475-15.5zM16.025 3.294c-7.387 0-12.731 6.119-12.731 12.706 0 6.863 5.7 12.675 12.731 12.675 6.45 0 12.675-5.069 12.675-12.675 0.006-7.113-5.637-12.706-12.675-12.706zM16 7.075c-5.119 0-6.406 4.831-6.406 8.925s1.288 8.925 6.406 8.925c5.119 0 6.406-4.831 6.406-8.925s-1.288-8.925-6.406-8.925zM16 10.444c0.206 0 0.4 0.031 0.575 0.075 0.369 0.319 0.55 0.756 0.194 1.369l-3.406 6.262c-0.106-0.794-0.119-1.569-0.119-2.15 0-1.8 0.125-5.556 2.756-5.556zM18.55 13.331c0.181 0.962 0.206 1.962 0.206 2.669 0 1.806-0.125 5.556-2.756 5.556-0.844 0-2.038-0.481-1.256-1.65z"
     id="path2"
     style="fill:#555555;fill-opacity:1" />
</svg>
