<?xml version="1.0" encoding="UTF-8" standalone="no"?>
<svg
   xmlns:dc="http://purl.org/dc/elements/1.1/"
   xmlns:cc="http://creativecommons.org/ns#"
   xmlns:rdf="http://www.w3.org/1999/02/22-rdf-syntax-ns#"
   xmlns:svg="http://www.w3.org/2000/svg"
   xmlns="http://www.w3.org/2000/svg"
   xmlns:sodipodi="http://sodipodi.sourceforge.net/DTD/sodipodi-0.dtd"
   xmlns:inkscape="http://www.inkscape.org/namespaces/inkscape"
   width="32"
   height="16"
   viewBox="0 0 8.4666665 4.2333335"
   version="1.1"
   id="svg8"
   inkscape:version="1.0.2 (e86c870879, 2021-01-15)"
   sodipodi:docname="cg3d.svg">
  <defs
     id="defs2" />
  <sodipodi:namedview
     id="base"
     pagecolor="#ffffff"
     bordercolor="#666666"
     borderopacity="1.0"
     inkscape:pageopacity="0.0"
     inkscape:pageshadow="2"
     inkscape:zoom="22.627417"
     inkscape:cx="16.228132"
     inkscape:cy="8.4880141"
     inkscape:document-units="mm"
     inkscape:current-layer="layer1"
     inkscape:document-rotation="0"
     showgrid="false"
     inkscape:lockguides="false"
     inkscape:showpageshadow="false"
     showborder="false"
     units="px"
     inkscape:window-width="1366"
     inkscape:window-height="704"
     inkscape:window-x="0"
     inkscape:window-y="0"
     inkscape:window-maximized="1" />
  <metadata
     id="metadata5">
    <rdf:RDF>
      <cc:Work
         rdf:about="">
        <dc:format>image/svg+xml</dc:format>
        <dc:type
           rdf:resource="http://purl.org/dc/dcmitype/StillImage" />
        <dc:title></dc:title>
      </cc:Work>
    </rdf:RDF>
  </metadata>
  <g
     inkscape:label="Layer 1"
     inkscape:groupmode="layer"
     id="layer1">
    <path
       d="M 6.17352,1.328631 V 2.915867 H 6.7527 c 0.47889,0 0.7104,-0.292894 0.7104,-0.797719 0,-0.501121 -0.2278,-0.789517 -0.7104,-0.789517 z m 0.31406,0.255852 h 0.22331 c 0.29422,0 0.42889,0.181504 0.42889,0.53975 0,0.357982 -0.13361,0.534459 -0.42889,0.534459 H 6.48758 Z"
       id="path10"
       style="fill:#1a1a1a;stroke-width:0.264583"
       sodipodi:nodetypes="ccsssccssscc" />
    <path
       d="M 7.72769,0.7992 A 0.26458333,0.26458333 0 0 1 7.99227,1.063783 V 3.18045 A 0.26458333,0.26458333 0 0 1 7.72769,3.445033 h -3.175 A 0.26458333,0.26458333 0 0 1 4.2881,3.18045 V 1.063783 A 0.26458333,0.26458333 0 0 1 4.55269,0.7992 Z M 4.55269,0.534617 A 0.52916666,0.52916666 0 0 0 4.02352,1.063783 V 3.18045 a 0.52916666,0.52916666 0 0 0 0.52917,0.529167 h 3.175 A 0.52916666,0.52916666 0 0 0 8.25685,3.18045 V 1.063783 A 0.52916666,0.52916666 0 0 0 7.72769,0.534617 Z"
       id="path12"
       style="fill:#1a1a1a;stroke-width:0.264583" />
    <path
       d="m 5.21944,2.219483 h 0.17568 c 0.17092,0 0.27914,0.100013 0.28046,0.238125 C 5.67758,2.59969 5.5626,2.70076 5.38824,2.70076 5.23002,2.69966 5.11387,2.61477 5.10567,2.500735 h -0.2884 c 0.008,0.24183 0.20929,0.446617 0.56965,0.446617 0.32808,0 0.60457,-0.174625 0.60113,-0.475721 C 5.98505,2.219483 5.79041,2.106506 5.64621,2.092748 v -0.0164 C 5.76263,2.057828 5.94387,1.936912 5.93937,1.712546 5.93637,1.472833 5.7277,1.29715 5.39618,1.298473 5.04957,1.299773 4.85563,1.492677 4.84743,1.740327 h 0.29184 c 0.006,-0.103452 0.10133,-0.198702 0.24765,-0.198702 0.14076,0 0.24553,0.08731 0.24553,0.215106 10e-4,0.126735 -0.10133,0.220927 -0.24553,0.220927 H 5.2197 v 0.13327 0.108559 z"
       id="path74"
       style="fill:#1a1a1a;stroke-width:0.264583"
       sodipodi:nodetypes="csccccsccccsccscscccc" />
    <text
       xml:space="preserve"
       style="font-style:normal;font-variant:normal;font-weight:bold;font-stretch:normal;font-size:2.74968px;line-height:1.25;font-family:Lato;-inkscape-font-specification:'Lato Bold';fill:#1a1a1a;stroke-width:0.187614"
       x="0.083903328"
       y="3.1164472"
       id="text52"><tspan
         sodipodi:role="line"
         id="tspan50"
         x="0.083903328"
         y="3.1164472"
         style="font-style:normal;font-variant:normal;font-weight:bold;font-stretch:normal;font-size:2.74968px;font-family:Lato;-inkscape-font-specification:'Lato Bold';fill:#1a1a1a;stroke-width:0.187614">C</tspan></text>
    <text
       xml:space="preserve"
       style="font-style:normal;font-variant:normal;font-weight:bold;font-stretch:normal;font-size:2.74968px;line-height:1.25;font-family:Lato;-inkscape-font-specification:'Lato Bold';fill:#1a1a1a;stroke-width:0.187614"
       x="1.8604765"
       y="3.1164472"
       id="text70"><tspan
         sodipodi:role="line"
         id="tspan68"
         x="1.8604765"
         y="3.1164472"
         style="font-style:normal;font-variant:normal;font-weight:bold;font-stretch:normal;font-size:2.74968px;font-family:Lato;-inkscape-font-specification:'Lato Bold';fill:#1a1a1a;stroke-width:0.187614">G</tspan></text>
  </g>
</svg>
